v -586.651 1.5018 15402.958
vt -57.8066 -75.2915
vn 0 1 0
v 1378.411 1.5018 16635.9082
vt -18.5053 -99.9505
v 5244.0029 1.5018 7357.0225
vt 58.8066 85.6272
usemtl grass001
f 1/1/1 2/2/1 3/3/1
v 9160.3145 -60 20710.5938
vt 9.5921 -7.3618
vn 0 1 0
v 9160.3154 -59.9953 -7614.2305
vt 9.5921 8.3618
v -14228.6904 -60 -7609.9375
vt -8.5921 7.1282
usemtl water003
f 4/4/2 5/5/2 6/6/2
v -14228.6904 -60 20710.5938
vt -8.5921 -7.3618
vn 0 1 0
f 6/6/2 7/7/3 4/4/2
v -6635.8511 1.5 -379.1671
vt 0.134 0.8562
vn 0 1 0
v -8309.0508 1.5 2801.0247
vt -0.6189 0.8505
v -7258.7065 1.5 3301.2854
vt -0.6085 0.1391
usemtl sin_003
f 8/8/4 9/9/4 10/10/4
v -5784.7197 1.5 686.0385
vt 0.0202 0.0908
f 8/8/4 10/10/4 11/11/4
